<?xml version="1.0" encoding="UTF-8"?><svg id="Layer_1" xmlns="http://www.w3.org/2000/svg" viewBox="0 0 1199.92 765.25"><defs><style>.cls-1{fill:#000;}.cls-1,.cls-2,.cls-3{stroke-width:0px;}.cls-2{fill:#f6a7ab;}.cls-3{fill:#fff;}.cls-4{fill:#170420;stroke:#170420;stroke-miterlimit:10;stroke-width:10px;}</style></defs><path class="cls-4" d="M122.4,223.76c12.3,109.03-36.95,204.25-40.83,332.42-.19,6.21-.42,19.89,8.42,30.46,16.88,20.19,62.09,23.38,86.19,3.24,29.11-24.32,5.72-63.8,38.23-110.16,19.33-27.56,52.04-48.47,64.16-40.83,21.33,13.44-32.09,108.44,4.54,150.34,10.9,12.47,25.92,18.14,25.92,18.14,12.17,3.93,30.69,7.71,47.95,0,46.85-20.92,36.51-101.36,57.53-265.1,16.05-124.94,36.02-185.49,7.76-202.85-17.65-10.84-45.75.3-60.5,10.68-26.74,18.82-33.24,51.75-40.03,88.86-10.81,59.1-.01,98.28-18.3,106.58-10.4,4.72-17.55-6.24-37.3-3.04-25.87,4.19-33.92,26.29-41.99,23.81-20.82-6.4,36.31-152.5-17.54-200.88-21.47-19.3-60.22-22.36-77.11-7.13-15.71,14.22-9.77,41.82-7.1,65.45Z"/><path class="cls-4" d="M596.15,355.2c-29.58,48.05,31.2,101.45,45.36,213.84,1.13,8.93,2.6,23.38,10.37,25.92,21.87,7.18,61.29-90.67,86.82-84.24,20.12,5.06,11.7,69.26,23.98,71.28,20.52,3.38,90.46-168.53,43.07-206.78-12.7-10.25-35.02-11.86-45.66-2.52-21.09,18.5,4.7,79.23-2.59,81.65-5.92,1.97-18.09-36.51-33.05-35.65-18.14,1.05-26.99,59.4-33.7,58.32-6.27-1.01,8.02-50.89-15.55-93.96-13.12-23.96-39.54-49.26-60.27-44.07-2.04.52-10.64,2.99-18.78,16.21Z"/><path class="cls-4" d="M1020.58,439.43c5.67,57.98,10.03,107.26,40.83,121.18,34.13,15.42,71.01-20.4,82.94-7.13,10.85,12.09-4.17,59.06-38.88,82.95-66.27,45.62-147.18-50.67-230.69-13.61-68.16,30.25-96.73,129.38-86.85,136.95,4.55,3.49,16.59-12.64,43.47-26.57,45.89-23.78,86.15-15.82,125.92-15.45,26.98.25,120.1,1.13,178.62-48.92,65.25-55.8,60.59-152.02,57.41-222.33-2.5-55.2-15.49-68.11-25.32-72.58-14.78-6.71-37.89-1.34-46.61,12.64-16.17,25.91,27.69,64.4,11.26,89.81-8.38,12.96-29.82,18.47-40.17,11.66-14.47-9.51,2.71-37.87-13.61-67.39-12.46-22.54-40.22-38.09-52.49-31.11-3.65,2.08-9.9,8.39-5.84,49.9Z"/><path class="cls-4" d="M514.35,388.89c-34.66-3.95-63.93,36.67-67.39,41.48-26.05,36.17-35.73,98.08,3.89,138.67,38.23,39.18,103.89,39.52,130.89,12.3,45.96-46.3-7.05-185.57-67.39-192.45ZM535.27,520.27c-11.29,11.37-38.72,11.23-54.7-5.14-16.55-16.96-12.47-42.84-1.62-57.94,1.45-2.01,13.67-18.98,28.16-17.33,25.21,2.88,47.37,61.08,28.17,80.42Z"/><path class="cls-4" d="M972.66,237.26c-2.58-11.16-8.02-34.73-18.14-35.64-10.71-.98-21.06,23.87-24.6,32.4-23.15,55.53.46,138,23.33,196.35-4.57-2.8-29.62-17.53-59.62-9.07-30,8.46-50.02,35.93-53.2,64.15-3.7,32.82,14.69,71.33,49.25,80.35,34.29,8.96,62.48-16.02,64.8-18.14,7.58,3.81,25.97,11.9,37.62,3.89,7.5-5.17,9.08-14.94,9.72-19.44,14.85-104.71-29.16-294.85-29.16-294.85ZM936.98,495.16c-4.94,20.84-30.05,34.66-47.3,26.57-15.95-7.49-20.24-31.38-12.96-47.95,5.17-11.79,18.14-24.32,33.05-22.68,18.43,2.01,31.8,24.72,27.21,44.06Z"/><path class="cls-2" d="M60.28,242.85l-.61,3.79c-2.43,15.08-4.77,30.16-7.28,45.23-.09.53-.29,1.71-.45,3.04l-.35,2.87h0l-.7,5.82h0c-.35,2.94-.58,5.07-.61,5.32-1.39,12.1-8.32,29.69-5.43,42.78,2.15,9.77,10.56,20.55,20.82,22.56,18.73,3.69,36-23.61,38.71-27.89,4.44-7.03,7.74-14.72,9.77-22.78,10.73-40.51,78.17-71.69,133.85-109.8,28.35-19.46,54.86-41.45,79.21-65.72,5.85-4.05,20.2-15.19,25.6-34.52,6.88-24.67-5.52-45.7-12.22-57.05-15.25-25.84-38.04-37.01-46.12-40.84-4.84-2.31-31.29-14.38-65.92-9.43-46.16,6.63-73.17,38.64-79.8,46.96-8.21-4.56-17.41-7.01-26.8-7.14-16.02-.03-27.22,7.41-43.93,18.86-11.98,8.19-28.26,19.58-42.03,40.44-8.33,12.63-12.05,23.18-18.47,41.17-5.14,14.46-9.24,29.27-12.28,44.32,2.2,7.38,5.53,14.38,9.87,20.75,14.74,21.44,36.78,28.9,45.2,31.27Z"/><path class="cls-1" d="M74.78,379.05c-3.26.74-6.64.86-10.1.18-12.86-2.52-22.37-15.5-24.78-26.43-2.19-9.92.48-21.5,2.84-31.71,1.07-4.66,2.09-9.05,2.51-12.73.02-.23.26-2.38.61-5.34l1.06-8.72c.17-1.33.36-2.49.46-3.11l.02-.14c1.66-9.94,3.27-20.06,4.82-29.85.79-4.94,1.57-9.87,2.37-14.81-12.14-4.07-30.68-13.03-43.67-31.94-4.65-6.82-8.2-14.27-10.55-22.17l-.36-1.21.25-1.24c3.08-15.22,7.28-30.36,12.47-45.01l.25-.7c6.36-17.83,10.21-28.59,18.77-41.56,14.62-22.14,31.94-33.99,43.4-41.83,16.12-11.05,28.86-19.78,46.79-19.74,8.83.12,17.54,2.13,25.47,5.85,11.77-13.8,38.85-39.65,80.4-45.62,34.37-4.91,61.36,6.31,68.82,9.87,21.2,10.04,37.46,24.45,48.3,42.84,5.4,9.15,20.05,34.11,12.73,60.98-1.34,4.91-4.37,13.41-27.22,37.06-27.4,28.36-54.83,49.04-79.6,66-19.42,13.29-13.51,9.25-41.73,26.82-42.41,26.4-82.47,51.34-90.09,80.1-2.15,8.54-5.64,16.69-10.38,24.19-6.69,10.57-19.03,26.62-33.86,29.97ZM10.42,190.58c2.05,6.45,5.02,12.55,8.84,18.15,12.84,18.68,32.07,26.34,42.39,29.24l4.34,1.22-1.33,8.25c-.82,5.11-1.64,10.22-2.45,15.34-1.56,9.81-3.17,19.94-4.83,29.92l-.02.14c-.09.55-.26,1.57-.4,2.69l-1.05,8.67c-.34,2.9-.58,5.01-.61,5.27-.49,4.27-1.57,8.94-2.71,13.88-2.11,9.17-4.51,19.57-2.81,27.26,1.71,7.73,8.63,17.08,16.85,18.68,3.6.71,16.64.95,33.46-25.62,4.17-6.59,7.24-13.76,9.14-21.31,8.66-32.7,50.38-58.67,94.54-86.16,26.94-16.77,21.46-13.57,41.36-26.58,38.91-25.45,60.46-40.82,81.58-64.11,16.41-18.1,19.71-26.81,21.22-33.32,5.52-23.84-6.84-44.87-11.7-53.11-9.8-16.61-24.58-29.68-43.94-38.84-6.82-3.25-31.48-13.5-63.04-8.99-41.44,5.95-67.34,33.53-76.56,45.1l-2.67,3.35-3.75-2.08c-7.45-4.14-15.89-6.39-24.41-6.5-14.08-.02-23.74,6.15-41,17.97-10.81,7.39-27.14,18.57-40.67,39.05-7.89,11.95-11.37,21.7-17.68,39.39l-.25.69c-4.89,13.78-8.87,28.03-11.83,42.36Z"/><path class="cls-2" d="M50.26,308.92c28.51-89.55,74.33-112.01,90.88-118.35,9.31-3.56,20.87-7.96,44.94-10.28,7.19-.7,76.49-7.69,111.04-26.2,6.48-3.48,15.9-8.95,23.16-19.64,5.58-8.41,8.91-18.12,9.65-28.19"/><path class="cls-1" d="M55.09,310.45c2.95-9.31,6.29-18.46,10.08-27.43,3.19-7.63,6.79-15.07,10.78-22.31,3.5-6.41,7.34-12.63,11.51-18.63,1.91-2.74,3.89-5.42,5.96-8.06.46-.59.93-1.18,1.4-1.76l.67-.85.34-.43c.45-.55-.58.69-.12.16.95-1.13,1.91-2.27,2.89-3.38,6.62-7.57,14.05-14.39,22.15-20.36.74-.56-.52.36-.25.18l.6-.43,1.3-.9c.81-.55,1.63-1.09,2.45-1.63,1.51-.98,3.06-1.93,4.65-2.84,2.69-1.54,5.43-2.96,8.25-4.27,2.3-1.06,4.65-2,7.02-2.9l1.51-.57c.74-.28.35-.08-.24.05l.92-.35c1.17-.42,2.33-.84,3.52-1.23,2.69-.91,5.42-1.73,8.17-2.46,11.16-2.95,22.56-4.12,33.99-5.39,10.18-1.15,20.34-2.55,30.46-4.22,14.09-2.25,28.05-5.23,41.83-8.94,13.13-3.61,26.27-8.05,38.12-14.91,7.5-4.23,14.11-9.87,19.47-16.61,1.53-1.92,8.54-11.02,11.01-23.97,1.59-8.34.12-12.17-1.56-14.4-1.37-1.81-3.64-3.55-3.88-3.33-.26.23,1.78,2.5,2.76,4.26,4.2,7.52-3.17,19.43-4.87,22.04-8.26,12.66-22.32,19.65-22.32,19.66,0,0,.25-.18.25-.18,0,0-.69.48-.86.6l-1.1.73c-.76.5-1.53.99-2.32,1.46-1.35.82-2.74,1.6-4.14,2.35-2.69,1.47-5.44,2.81-8.25,4.03-1.5.65-3,1.28-4.51,1.88l-2.25.86c-.95.37.72-.26-.25.1l-1.34.48c-3.3,1.18-6.63,2.26-9.98,3.27-13.76,4.04-27.75,7.28-41.9,9.68-2.91.52-5.82,1.01-8.74,1.48-10.96,1.77-18.35,2.65-24.53,3.44-19.36,2.48-29.03,3.71-38.81,6.32-9.97,2.65-16.28,5.28-19.49,6.7-7.51,3.33-13.26,6.77-16.71,9.07-8.14,5.43-15.66,11.73-22.44,18.79-9.02,9.47-16.99,19.9-23.76,31.09-8.93,14.88-16.38,30.6-22.25,46.94-1.7,4.64-3.3,9.33-4.8,14.05-.42,1.32.62,5.53,3.29,6.35,1.94.6,4.51-.72,6.28-3.29Z"/><path class="cls-2" d="M148.49,53.89l61.47,42.54c5.52,3.66,10.81,7.67,15.84,11.98"/><path class="cls-1" d="M146.47,57.11l61.11,42.31c2.73,1.89,5.46,3.77,8.13,5.74,1.28.94,2.55,1.9,3.8,2.88l.93.75s.89.73.48.39c.71.6,1.41,1.2,2.14,1.82,1.48,1.31,3.85,1.72,5.37.18,1.33-1.35,1.77-3.95.18-5.37-4.65-4.02-9.54-7.77-14.63-11.22-5.07-3.53-10.16-7.05-15.25-10.56l-30.93-21.38-17.26-11.95c-1.77-1.1-4.1-.58-5.23,1.18-1.08,1.78-.56,4.09,1.18,5.23h0Z"/><path class="cls-2" d="M225.8,108.27c8.25-6.69,10.34-8.04,10.52-7.83s-2.05,2.4-5.02,5.83c0,0-3.37,3.87-8.44,10.91-7.62,10.56-12.32,27.05-23.95,46.18-5.22,8.6-9.83,14.17-17.21,17.13-3.55,1.4-7.34,2.08-11.15,2"/><path class="cls-2" d="M221.77,105.21l-3.28,3.89s-3.47,3.77-8.74,10.66c-7.92,10.35-13.08,26.69-25.26,45.47-5.16,7.97-10.36,13.12-17.69,16.63-3.65,1.74-7.55,2.89-11.55,3.42"/><path class="cls-3" d="M223.41,105.55c-1.65-1.16-17.8,11.29-28.43,32.8-5.32,10.76-12.71,30.75-16.99,34.19-.23.19-1.24.96-1.18,1.91.14,2.22,6.03,3.5,6.29,3.56,13.55,2.84,48.33-70.67,45.5-72.2-.57-.31-2.92,2.17-4.32,1.29-.7-.44-.52-1.31-.86-1.55Z"/><path class="cls-1" d="M103.84,66.34c7.3,1.4,15.28,2.49,21.15,7.5,3.6,3.34,2.63,7.95-.62,11.01-2.77,2.79-6,4.8-9.18,6.79-6.43,3.87-12.98,7.38-19.34,11.19-33.27,19.01-56.38,46.42-68.9,82.7,0,0-.48-.12-.48-.12,2.95-18.47,11.02-36.55,23.15-51.06,12.27-14.42,28.19-25.27,44.62-34.34,6.54-3.63,13.24-6.93,19.69-10.53,3.2-1.81,6.43-3.66,9.01-6.07,1.26-1.2,2.35-2.6,2.57-4.14.7-7.73-15.95-11.03-21.77-12.45,0,0,.09-.49.09-.49h0Z"/><path class="cls-1" d="M228.35,111.05c2.6-2.11,5.2-4.23,7.89-6.22l.52-.38c.44-.32-.89.62-.2.15.23-.16.46-.32.71-.47.17-.08.34-.17.49-.28.23-.23-.91.32-.8.29-1.61.33-3.24-.44-4.01-1.89l-.44-1.97c-.03-.12.2-1.48.49-1.64-.06.06-.11.14-.15.22-.28.56.69-.75.11-.14l-1.51,1.67c-.97,1.08-1.94,2.12-2.86,3.24-2.17,2.65-3.6,3.35-4.29,5.29-.38,1.07-.43,2.03-.43,2.65-3.39,3.9-7.1,8.74-10.59,14.63-5.3,8.93-6.38,13.99-13.32,27.75,0,0-4.42,8.76-9.79,15.45-.01.01-.25.31-.24.31,0,0,.44-.52.14-.17-.18.2-.35.41-.52.6-.35.4-.69.78-1.07,1.16-.7.74-1.44,1.44-2.21,2.1-.38.32-.72.63-1.16.94l-.48.36c.41-.3.29-.21-.06.01-.83.55-1.7,1.06-2.59,1.51-.41.21-.82.41-1.24.59l-.72.3c-.19.04-.8.3-.35.14-1.2.42-2.44.76-3.69,1.01-.56.13-1.14.21-1.71.28l-.65.09c-.84.11.66-.03-.22.05-.88.08-1.8.09-2.7.07-2.09-.1-3.87,1.52-3.97,3.61-.1,2.09,1.52,3.87,3.61,3.97,5.42.12,10.79-1.12,15.61-3.59,4.33-2.44,8.09-5.78,11.03-9.78,3.46-4.62,6.54-9.51,9.21-14.63,2.67-4.92,5.11-9.94,7.46-15,1.03-2.19,2.02-4.4,3.03-6.6.48-1.03.95-2.07,1.43-3.11l.35-.76.89-1.87c1.67-3.59,3.58-7.06,5.73-10.39,2.43-3.65,5.17-7.15,7.95-10.55.22-.27,1.01-1.17.05-.06l.39-.46.42-.5c1.42-1.64,2.93-3.2,4.36-4.84.74-.72,1.32-1.59,1.7-2.55.1-.25.48-2.06-.65-3.53-.74-.95-1.75-1.28-1.95-1.34-.13-.04-.47-.17-.89-.16-1.09.02-2.15.37-3.03,1-3.58,2.36-6.89,5.18-10.21,7.87-1.52,1.44-1.61,3.83-.19,5.37,1.45,1.46,3.78,1.54,5.33.18Z"/><path class="cls-1" d="M219.18,102.43c-3.5,4.16-7.1,8.23-10.47,12.5-2.05,2.53-3.94,5.19-5.65,7.96-1.62,2.69-3.08,5.48-4.51,8.29-3.4,6.7-6.58,13.49-10.16,20.08-2.08,3.81-4.28,7.57-6.62,11.24-1.15,1.78-2.33,3.53-3.61,5.21-.28.37-.57.73-.87,1.06-.08.1-.46.55-.04,0-.14.17-.28.35-.44.51-.61.71-1.24,1.4-1.89,2.07-1.43,1.42-2.94,2.74-4.53,3.97-.45.35.5-.35,0,0l-.64.45c-.44.29-.89.58-1.34.86-1.14.69-2.14,1.24-2.52,1.43-1.96.99-4.63,1.3-5.88,1.41-1.12.08-3.45.4-5.61,2.09-.67.53-3.35,2.6-2.87,4.54.5,2.01,2.5,3.27,4.54,2.87,9.72-1.96,20.59-8.77,21.31-9.52,5.09-5.24,6.82-9.75,10.94-18.7,11.76-25.59,20.51-44.65,31.18-52.71,1.15-.87,5.62-4.11,5.01-5.44-.44-.95-3.3-.56-5.34-.17Z"/></svg>