<?xml version="1.0" encoding="UTF-8"?><svg id="Layer_1" xmlns="http://www.w3.org/2000/svg" viewBox="0 0 247.89 304.83"><defs><style>.cls-1{stroke:#3eb91b;}.cls-1,.cls-2{stroke-miterlimit:10;}.cls-1,.cls-2,.cls-3{fill:none;}.cls-4{opacity:.61;}.cls-4,.cls-5,.cls-6,.cls-7,.cls-8,.cls-9{stroke-width:0px;}.cls-4,.cls-8{fill:#fff;}.cls-5{fill:#96fc4d;opacity:.19;}.cls-2{stroke:#54ce1d;}.cls-6{fill:#498026;opacity:.13;}.cls-7{fill:#93fa4b;}.cls-9{fill:#4d18fb;}.cls-3{stroke:#40f41d;stroke-linejoin:bevel;}</style></defs><path class="cls-7" d="M235.81,191.29c2.22,1.15,8.27,4.66,8.82,10.13.67,6.7-7.35,12.02-13.08,15.81-6.75,4.47-13.21,6.32-17.17,7.16-35.22,8.68-70.44,17.35-105.66,26.03-32.86-27.11-65.72-54.23-98.57-81.34,37.74-8.51,75.49-17.03,113.23-25.54,6.38-2.06,11.87-2.62,15.71-2.73,2.07-.06,12.34-.23,24.84,4.96,6.9,2.86,11.58,6.15,13.31,7.36,11.5,8.03,31.19,20.78,58.57,38.15Z"/><path class="cls-6" d="M225.67,219.99c-27.05-17.58-54.11-35.16-81.16-52.74-34.54,8.6-69.07,17.19-103.61,25.79-10.25-7.99-20.5-15.97-30.75-23.96l122.84-27.69c4.37-.42,10.1-.54,16.67.47,8.14,1.26,14.63,3.79,19.11,5.97,20.63,13.09,41.27,26.18,61.9,39.27,9.41,4.66,15.55,11.3,14.58,16.71-.55,3.06-3.29,5.27-7.81,8.92-4.58,3.7-8.89,5.96-11.77,7.27Z"/><path class="cls-4" d="M215.09,276.15c5.62-1.17,10.11-2.69,13.25-3.9,8.16-3.15,12.87-5.04,15.88-9.88,2.64-4.25,2.9-8.81,2.9-8.81.08-1.38-.04-2.02-.28-5.17-.28-3.58-.38-6.59-.4-8.8-.4-11.93-.8-23.86-1.2-35.79-.15.9-.49,2.21-1.31,3.59-.87,1.46-1.9,2.33-2.68,2.96-3.11,2.53-6.46,4.71-8.25,5.84-6.21,2.73-12.42,5.47-18.62,8.2.24,17.25.47,34.5.71,51.76Z"/><path class="cls-5" d="M109.49,304.18c35.2-9.34,70.4-18.69,105.6-28.03,7.99-1.97,14.23-4.34,18.59-6.24,4.05-1.76,6.74-3.23,8.98-6.09,2.36-3,3.18-6.22,3.51-8.25-.1-17.6-.2-35.19-.3-52.79l-1.25-1.36c.2,1.27.36,3.56-.69,5.97-.45,1.03-1.3,2.49-4.34,4.91-2.88,2.3-5.52,3.7-8.05,4.93-2.79,1.35-6.58,3.04-11.25,4.7-1.97.82-3.95,1.64-5.92,2.47-35.8,8.67-71.6,17.33-107.4,26-32.28-27.08-64.55-54.15-96.83-81.23.43,18.49.86,36.98,1.28,55.47,32.69,26.52,65.37,53.03,98.06,79.55Z"/><path class="cls-2" d="M11.28,169.36c37.37-8.61,74.73-17.21,112.1-25.82,4.14-1.04,10.18-2.17,17.58-2.2,4.48-.01,7.6.36,8.69.51,6.69.91,11.72,2.83,14.27,3.91,2.48,1.06,5.7,2.64,9.21,5.01,10.32,6.6,20.68,13.25,31.06,19.96,10.6,6.85,21.14,13.7,31.62,20.55.35.27.9.71,1.56,1.28,2.5,2.17,5.04,4.36,6.22,7.66,0,0,.63,1.75.66,3.75.19,9.99-29.89,19.69-29.89,19.69-20.05,5.19-40.11,10.31-60.19,15.38-15.14,3.82-30.29,7.62-45.45,11.38-32.48-27.02-64.96-54.04-97.44-81.06Z"/><path class="cls-1" d="M168.77,147.83c-4.5-2.19-10.91-4.7-18.88-5.85-10.41-1.5-18.63.03-22.64.81-15.43,3-58.84,12.45-117.1,26.37.43,18.49.86,36.98,1.28,55.47,32.75,26.55,65.49,53.1,98.24,79.65,57.26-15.86,96.61-26.41,108.36-28.76,0,0,4.54-.86,10.31-3.27,6.51-2.72,14.68-6.13,17.8-13.64.98-2.35,1.19-4.46,1.25-5.71-.5-16.7-1.01-33.41-1.51-50.11-.73-1.71-2.04-4.34-4.3-7.06-2.93-3.54-6.01-5.5-7.22-6.27-7.29-4.65-31.99-20.44-65.59-41.62Z"/><path class="cls-3" d="M216.06,275.5c-.57-17.28-1.14-34.56-1.7-51.84-35.21,8.92-70.42,17.84-105.64,26.76.26,17.92.51,35.84.77,53.76,35.52-9.56,71.05-19.12,106.57-28.68Z"/><path class="cls-7" d="M7.54,164.11c2.52-8.88,5.04-17.76,7.57-26.65,10.22-35.83,20.56-71.62,31.02-107.37,46.67-7.65,93.34-15.31,140.01-22.96.55-.24,1.47-.53,2.5-.31,1.83.38,2.78,2.08,3.43,3.23,1.72,3.08,1.52,6.33,1.27,8.02-2.03,5.31-4.43,11.58-6.84,17.88-5.03,13.14-7.75,20.24-9.59,25-3.49,9.01-8.58,21.86-15.32,37.93-2.65,6.06-5.3,12.13-7.95,18.19-2.44,4.92-6.48,11.08-13.27,15.63-5.92,3.97-11.53,5.13-13.61,5.56-13.48,2.81-58.2,12.69-119.21,25.84Z"/><path class="cls-6" d="M127.13,129.01c1.95-.5,6.24-1.65,10.61-4.96,6.63-5.04,9.57-12.14,10.96-16.79,13.2-33.52,26.41-67.04,39.61-100.56.78.42,1.86,1.13,2.9,2.27,1.35,1.48,2.02,3,2.34,3.94l-.22,5.17c-19.34,51.23-34.6,88.49-39.71,99-1.46,3.01-4.37,8.51-9.95,13.18-5.2,4.35-10.6,6.26-11.96,6.72-1.97.66-3.68,1.05-4.98,1.3-39.74,8.61-79.48,17.23-119.21,25.84.86-3.02,1.71-6.04,2.57-9.06,60.75-13.01,105.36-23.05,117.03-26.04Z"/><path class="cls-5" d="M.56,156.05C13.22,112.01,25.89,67.98,38.55,23.95,86.87,16.13,135.18,8.32,183.5.51c1.11.22,3.23.81,5.3,2.48.43.34,2.28,1.78,3.46,4.44,2.27,5.07.96,10.07.77,10.06-.18,0,.68-3.93-1.57-7.44-.99-1.55-2.3-2.56-3.43-3.23-47.5,7.76-95,15.51-142.5,23.27-11.43,39.81-22.87,79.62-34.3,119.43-1.33,4.61-2.65,9.23-3.98,13.84-2.23-2.44-4.47-4.88-6.7-7.32Z"/><g id="pill"><path id="Path_189" class="cls-9" d="M158.79,192.9c-5.5-5.51-14.43-5.51-19.93,0,0,0,0,0,0,0l-10.31,10.31-.04.04-.06.06h-.01s-1.32,1.35-1.32,1.35c-.5.53-.78,1.23-.77,1.95l-7.7,7.71c-5.17,5.17-5.17,13.56,0,18.73,2.48,2.48,5.85,3.87,9.36,3.88,3.52,0,6.89-1.39,9.37-3.88l7.86-7.86c.75.01,1.48-.28,2.01-.81l1.01-1.03s.09-.06.12-.1l10.4-10.4c5.5-5.51,5.5-14.43,0-19.94h0Z"/><path id="Path_190" class="cls-8" d="M121.06,230.64c-3.84-3.84-3.84-10.06,0-13.9,0,0,0,0,0,0l9.04-9.04c.77.18,4.04,1.17,8.39,5.52,4.35,4.35,5.34,7.63,5.52,8.39l-9.04,9.04c-3.84,3.84-10.06,3.84-13.91,0Z"/><path id="Path_191" class="cls-8" d="M153.21,194.08c-.07,0-.14,0-.19.01-.45.06-.89.15-1.33.27-.26.07-.51.13-.76.23-1.97.72-3.75,1.87-5.21,3.37l-7.94,7.94-.35.35c-1.18-.77-2.5-1.31-3.87-1.61l9.42-9.42c.36-.35.74-.68,1.15-.97,1.55-1.14,3.4-1.82,5.32-1.97.93-.07,1.86-.02,2.77.15.48.09,2.41.39,2.32,1.18-.05.45-.86.45-1.33.47h.01Z"/><path id="Path_192" class="cls-9" d="M138.85,218.94l-6.92,6.92c-1.22,1.25-2.7,2.21-4.34,2.81-.57.2-1.15.34-1.75.42-.31.04-1.22-.03-1.27.4-.07.66,1.53.91,1.94.98.76.14,1.53.19,2.31.13,2.03-.15,3.95-1.02,5.4-2.45l6.46-6.46c-.44-1.02-1.06-1.94-1.83-2.74Z"/></g><g id="pill-3"><path id="Path_189-3" class="cls-9" d="M80.32,174.81c-1.09,7.71,4.28,14.84,12,15.93,0,0,0,0,0,0l14.44,2.03h.06s.08.02.08.02h.02s1.87.25,1.87.25c.72.08,1.45-.12,2.02-.56l10.8,1.51c7.25,1.02,13.94-4.03,14.96-11.28.49-3.48-.42-7-2.54-9.81-2.11-2.81-5.26-4.67-8.74-5.15l-11.02-1.55c-.44-.61-1.11-1.01-1.86-1.12l-1.44-.19c-.05-.02-.1-.03-.16-.04l-14.58-2.05c-7.71-1.08-14.84,4.29-15.93,12h0Z"/><path id="Path_190-3" class="cls-8" d="M133.18,182.24c-.75,5.38-5.72,9.12-11.1,8.37,0,0,0,0,0,0l-12.66-1.78c-.32-.72-1.5-3.93-.64-10.02.86-6.09,2.88-8.86,3.38-9.46l12.66,1.78c5.38.76,9.12,5.73,8.37,11.11Z"/><path id="Path_191-3" class="cls-8" d="M84.62,178.57c.04.06.09.11.13.14.32.32.66.62,1.01.9.21.16.42.33.64.47,1.76,1.14,3.75,1.87,5.83,2.14l11.13,1.56.49.07c.1,1.41.45,2.78,1.05,4.07l-13.2-1.86c-.5-.07-.99-.18-1.47-.33-1.85-.55-3.5-1.62-4.77-3.07-.61-.7-1.13-1.47-1.54-2.3-.22-.44-1.14-2.16-.46-2.56.39-.23.87.42,1.17.78h0Z"/><path id="Path_192-3" class="cls-9" d="M113.13,175.07l9.69,1.36c1.73.22,3.39.83,4.85,1.78.5.33.97.71,1.39,1.14.22.23.71.99,1.09.77.57-.34-.2-1.77-.38-2.14-.34-.69-.77-1.34-1.28-1.92-1.34-1.54-3.19-2.54-5.21-2.84l-9.06-1.27c-.54.97-.91,2.02-1.09,3.12Z"/></g><path class="cls-1" d="M.56,156.05C13.22,112.01,25.89,67.98,38.55,23.95,86.87,16.13,135.18,8.32,183.5.51c1.11.22,3.23.81,5.3,2.48.43.34,2.28,1.78,3.46,4.44,2.27,5.07.96,10.07.77,10.06-.18,0,.68-3.93-1.57-7.44-.99-1.55-2.3-2.56-3.43-3.23-47.5,7.76-95,15.51-142.5,23.27-11.43,39.81-22.87,79.62-34.3,119.43-1.33,4.61-2.65,9.23-3.98,13.84-2.23-2.44-4.47-4.88-6.7-7.32Z"/></svg>